# Blender 3.2.0
# www.blender.org
mtllib untitled.mtl
o Cube
v 1.000000 1.000000 -1.000000
v 1.000000 -0.962585 -31.850061
v 1.000000 1.000000 1.000000
v 1.000000 -0.973179 -30.635574
v -1.000000 1.000000 -1.000000
v -1.000000 -0.962585 -31.850061
v -1.000000 1.000000 1.000000
v -1.000000 -0.973179 -30.635574
v 1.000000 -0.298443 3.421339
v -1.000000 -0.299553 5.414392
v 1.000000 -0.299553 5.414392
v -1.000000 -0.298443 3.421339
v 1.000000 -0.654123 -3.211934
v 1.000000 -0.657515 -1.277719
v -1.000000 -0.654123 -3.211934
v -1.000000 -0.657515 -1.277722
v -1.000000 -0.474501 3.221466
v 1.000000 -0.473391 1.228412
v 1.000000 -0.474501 3.221466
v -1.000000 -0.473391 1.228412
v 1.000000 -0.833761 -12.192506
v 1.000000 -0.842066 -10.627822
v -1.000000 -0.833761 -12.192506
v -1.000000 -0.842066 -10.627823
v 0.000000 -0.962585 -31.850061
v 0.000000 1.000000 1.000000
v 0.000000 -0.973179 -30.635574
v 0.000000 1.000000 -1.000000
v 0.000000 -0.298443 3.421339
v 0.000000 -0.299553 5.414392
v 0.000000 -0.657515 -1.277719
v 0.000000 -0.654123 -3.211934
v 0.000000 -0.474501 3.221466
v 0.000000 -0.473391 1.228412
v 0.000000 -0.833761 -12.192506
v 0.000000 -0.842066 -10.627823
v 1.000000 -0.909283 -21.388760
v 1.000000 -0.919876 -20.174278
v -1.000000 -0.909283 -21.388760
v -1.000000 -0.919876 -20.174278
v 0.000000 -0.919876 -20.174278
v 0.000000 -0.909283 -21.388760
v -1.000000 -0.387027 4.317929
v 1.000000 -0.385917 2.324876
v 1.000000 -0.387027 4.317929
v -1.000000 -0.385917 2.324876
v 0.000000 -0.387027 4.317929
v 0.000000 -0.385917 2.324876
v 1.000000 -0.562497 -0.483143
v 1.000000 -0.564762 1.487810
v -1.000000 -0.562497 -0.483143
v -1.000000 -0.564762 1.487810
v 0.000000 -0.562497 -0.483143
v 0.000000 -0.564762 1.487810
v -1.000000 -0.742406 -4.626961
v 1.000000 -0.739015 -6.561172
v 1.000000 -0.742406 -4.626957
v -1.000000 -0.739015 -6.561172
v 0.000000 -0.739015 -6.561172
v 0.000000 -0.742406 -4.626959
v -1.000000 -0.343290 4.866160
v 1.000000 -0.342180 2.873107
v 1.000000 -0.343290 4.866160
v -1.000000 -0.342180 2.873107
v 0.000000 -0.343290 4.866160
v 0.000000 -0.342180 2.873107
v 1.000000 -0.429654 1.776644
v 1.000000 -0.430764 3.769697
v -1.000000 -0.429654 1.776644
v 0.000000 -0.430764 3.769697
v 0.000000 -0.429654 1.776644
v -1.000000 -0.430764 3.769697
v -1.000000 -0.521510 2.605745
v 1.000000 -0.519245 0.634792
v 1.000000 -0.521510 2.605745
v -1.000000 -0.519245 0.634792
v 0.000000 -0.519245 0.634792
v 0.000000 -0.521510 2.605745
v 1.000000 -0.605749 -1.601078
v 1.000000 -0.608014 0.369876
v -1.000000 -0.605749 -1.601078
v 0.000000 -0.605749 -1.601078
v 0.000000 -0.608014 0.369876
v -1.000000 -0.608014 0.369876
v -1.000000 -0.699961 -2.952343
v 1.000000 -0.696569 -4.886553
v 1.000000 -0.699960 -2.952338
v -1.000000 -0.696569 -4.886553
v 0.000000 -0.696569 -4.886553
v 0.000000 -0.699960 -2.952338
v 1.000000 -0.781460 -8.235792
v 1.000000 -0.784852 -6.301578
v -1.000000 -0.781460 -8.235792
v 0.000000 -0.781460 -8.235792
v 0.000000 -0.784852 -6.301581
v -1.000000 -0.784852 -6.301581
v -1.000000 -0.876403 -14.728292
v 1.000000 -0.868098 -16.292980
v 1.000000 -0.876403 -14.728292
v -1.000000 -0.868098 -16.292980
v 0.000000 -0.876403 -14.728292
v 0.000000 -0.868098 -16.292980
v 1.000000 -0.935934 -26.619404
v 1.000000 -0.946528 -25.404928
v -1.000000 -0.935934 -26.619404
v 0.000000 -0.946528 -25.404928
v 0.000000 -0.935934 -26.619404
v -1.000000 -0.946528 -25.404928
v -1.000000 -0.967882 -31.242825
v 1.000000 1.000000 0.000000
v -1.000000 1.000000 0.000000
v 1.000000 -0.967882 -31.242825
v 1.000000 -0.298998 4.417866
v -1.000000 -0.298998 4.417866
v -1.000000 -0.655819 -2.244825
v 1.000000 -0.655819 -2.244825
v -1.000000 -0.473946 2.224939
v 1.000000 -0.473946 2.224939
v 1.000000 -0.837914 -11.410165
v -1.000000 -0.837914 -11.410167
v 0.000000 -0.967882 -31.242825
v 0.000000 1.000000 0.000000
v -1.000000 -0.914580 -20.781515
v 1.000000 -0.914580 -20.781515
v -1.000000 -0.386472 3.321402
v 1.000000 -0.386472 3.321402
v 1.000000 -0.563630 0.502334
v -1.000000 -0.563630 0.502334
v 1.000000 -0.740710 -5.594065
v -1.000000 -0.740710 -5.594068
v -1.000000 -0.342735 3.869634
v 1.000000 -0.342735 3.869634
v 1.000000 -0.430209 2.773171
v -1.000000 -0.430209 2.773171
v 1.000000 -0.520378 1.620269
v -1.000000 -0.520378 1.620269
v -1.000000 -0.606881 -0.615601
v 1.000000 -0.606881 -0.615601
v 1.000000 -0.698265 -3.919446
v -1.000000 -0.698265 -3.919449
v -1.000000 -0.783156 -7.268687
v 1.000000 -0.783156 -7.268685
v -1.000000 -0.872250 -15.510633
v 1.000000 -0.872250 -15.510633
v 1.000000 -0.941231 -26.012163
v -1.000000 -0.941231 -26.012163
vn -0.0000 1.0000 -0.0000
vn -0.0000 0.9593 0.2824
vn -1.0000 -0.0000 -0.0000
vn -0.0000 -1.0000 -0.0087
vn 1.0000 -0.0000 -0.0000
vn -0.0000 -0.9595 -0.2818
vn -0.0000 0.9968 -0.0795
vn -0.0000 -0.9968 0.0795
vn -0.0000 -0.9997 0.0253
vn -0.0000 0.9997 -0.0253
vn -0.0000 -0.9971 0.0761
vn -0.0000 0.9970 -0.0770
vn -0.0000 1.0000 -0.0084
vn -0.0000 -1.0000 0.0084
vn -0.0000 1.0000 -0.0051
vn -0.0000 -1.0000 0.0051
vn -0.0000 -0.9993 0.0387
vn -0.0000 0.9993 -0.0387
vn -0.0000 -0.9995 0.0300
vn -0.0000 0.9995 -0.0300
vn -0.0000 -0.9999 0.0132
vn -0.0000 0.9999 -0.0132
vn -0.0000 1.0000 -0.0081
vn -0.0000 -1.0000 0.0080
vt 0.625000 0.500000
vt 0.375000 0.500000
vt 0.625000 0.750000
vt 0.375000 0.750000
vt 0.625000 0.250000
vt 0.875000 0.500000
vt 0.375000 0.250000
vt 0.125000 0.500000
vt 0.875000 0.750000
vt 0.625000 1.000000
vt 0.625000 0.000000
vt 0.125000 0.750000
vt 0.375000 1.000000
vt 0.375000 0.000000
vt 0.462779 0.500000
vt 0.462779 1.000000
vt 0.462779 0.000000
vt 0.462779 0.750000
vt 0.462779 0.250000
vt 0.418889 0.500000
vt 0.418889 0.750000
vt 0.418889 0.250000
vt 0.418889 1.000000
vt 0.418889 0.000000
vt 0.440834 1.000000
vt 0.440834 0.000000
vt 0.440834 0.500000
vt 0.440834 0.750000
vt 0.440834 0.250000
vt 0.396945 0.500000
vt 0.396945 0.750000
vt 0.396945 0.250000
vt 0.396945 1.000000
vt 0.396945 0.000000
vt 0.375000 0.375000
vt 0.250000 0.500000
vt 0.625000 0.875000
vt 0.750000 0.750000
vt 0.250000 0.750000
vt 0.375000 0.875000
vt 0.625000 0.375000
vt 0.750000 0.500000
vt 0.462779 0.375000
vt 0.462779 0.875000
vt 0.418889 0.875000
vt 0.418889 0.375000
vt 0.440834 0.875000
vt 0.440834 0.375000
vt 0.396945 0.375000
vt 0.396945 0.875000
vt 0.385972 0.500000
vt 0.385972 0.750000
vt 0.385972 0.250000
vt 0.385972 1.000000
vt 0.385972 0.000000
vt 0.385972 0.875000
vt 0.385972 0.375000
vt 0.451806 1.000000
vt 0.451806 0.000000
vt 0.451806 0.500000
vt 0.451806 0.750000
vt 0.451806 0.250000
vt 0.451806 0.875000
vt 0.451806 0.375000
vt 0.429862 0.500000
vt 0.429862 0.750000
vt 0.429862 0.250000
vt 0.429862 1.000000
vt 0.429862 0.000000
vt 0.429862 0.375000
vt 0.429862 0.875000
vt 0.407917 1.000000
vt 0.407917 0.000000
vt 0.407917 0.500000
vt 0.407917 0.750000
vt 0.407917 0.250000
vt 0.407917 0.375000
vt 0.407917 0.875000
vt 0.457293 1.000000
vt 0.457293 0.000000
vt 0.457293 0.500000
vt 0.457293 0.750000
vt 0.457293 0.250000
vt 0.457293 0.875000
vt 0.457293 0.375000
vt 0.446320 0.500000
vt 0.446320 0.750000
vt 0.446320 0.250000
vt 0.446320 0.875000
vt 0.446320 0.375000
vt 0.446320 1.000000
vt 0.446320 0.000000
vt 0.435348 1.000000
vt 0.435348 0.000000
vt 0.435348 0.500000
vt 0.435348 0.750000
vt 0.435348 0.250000
vt 0.435348 0.375000
vt 0.435348 0.875000
vt 0.424376 0.500000
vt 0.424376 0.750000
vt 0.424376 0.250000
vt 0.424376 0.375000
vt 0.424376 0.875000
vt 0.424376 1.000000
vt 0.424376 0.000000
vt 0.413403 1.000000
vt 0.413403 0.000000
vt 0.413403 0.500000
vt 0.413403 0.750000
vt 0.413403 0.250000
vt 0.413403 0.375000
vt 0.413403 0.875000
vt 0.402431 0.500000
vt 0.402431 0.750000
vt 0.402431 0.250000
vt 0.402431 0.375000
vt 0.402431 0.875000
vt 0.402431 1.000000
vt 0.402431 0.000000
vt 0.391459 1.000000
vt 0.391459 0.000000
vt 0.391459 0.500000
vt 0.391459 0.750000
vt 0.391459 0.250000
vt 0.391459 0.875000
vt 0.391459 0.375000
vt 0.380486 0.500000
vt 0.380486 0.750000
vt 0.380486 0.250000
vt 0.380486 0.875000
vt 0.380486 0.375000
vt 0.380486 1.000000
vt 0.380486 0.000000
vt 0.375000 0.125000
vt 0.125000 0.625000
vt 0.625000 0.625000
vt 0.625000 0.125000
vt 0.875000 0.625000
vt 0.375000 0.625000
vt 0.462779 0.625000
vt 0.462779 0.125000
vt 0.418889 0.125000
vt 0.418889 0.625000
vt 0.440834 0.125000
vt 0.440834 0.625000
vt 0.396945 0.625000
vt 0.396945 0.125000
vt 0.250000 0.625000
vt 0.750000 0.625000
vt 0.385972 0.125000
vt 0.385972 0.625000
vt 0.451806 0.125000
vt 0.451806 0.625000
vt 0.429862 0.625000
vt 0.429862 0.125000
vt 0.407917 0.625000
vt 0.407917 0.125000
vt 0.457293 0.125000
vt 0.457293 0.625000
vt 0.446320 0.625000
vt 0.446320 0.125000
vt 0.435348 0.625000
vt 0.435348 0.125000
vt 0.424376 0.125000
vt 0.424376 0.625000
vt 0.413403 0.625000
vt 0.413403 0.125000
vt 0.402431 0.125000
vt 0.402431 0.625000
vt 0.391459 0.125000
vt 0.391459 0.625000
vt 0.380486 0.625000
vt 0.380486 0.125000
s 0
usemtl Material
f 111/139/1 26/38/1 122/150/1
f 26/37/2 10/16/2 30/44/2
f 111/138/3 12/19/3 114/142/3
f 112/140/4 27/39/4 121/149/4
f 113/141/5 3/3/5 11/18/5
f 28/41/6 9/15/6 29/43/6
f 29/43/7 62/81/7 66/85/7
f 113/141/5 63/82/5 132/160/5
f 131/159/3 12/19/3 64/83/3
f 30/44/8 61/79/8 65/84/8
f 90/113/9 16/23/9 85/107/9
f 140/168/3 15/22/3 88/111/3
f 116/144/5 87/110/5 139/167/5
f 32/46/10 86/109/10 89/112/10
f 33/47/11 73/93/11 78/99/11
f 136/164/3 20/29/3 76/97/3
f 118/146/5 75/96/5 135/163/5
f 34/48/12 74/95/12 77/98/12
f 35/49/13 98/123/13 102/127/13
f 119/147/5 99/124/5 144/172/5
f 143/171/3 23/32/3 100/125/3
f 36/50/14 97/121/14 101/126/14
f 99/124/14 36/50/14 101/126/14
f 23/32/13 102/127/13 100/125/13
f 20/29/12 77/98/12 76/97/12
f 19/28/11 78/99/11 75/96/11
f 15/22/10 89/112/10 88/111/10
f 14/21/9 90/113/9 87/110/9
f 11/18/8 65/84/8 63/82/8
f 12/19/7 66/85/7 64/83/7
f 5/5/6 29/43/6 12/19/6
f 121/149/4 8/12/4 109/136/4
f 3/3/2 30/44/2 11/18/2
f 122/150/1 3/3/1 110/137/1
f 39/53/15 107/132/15 105/130/15
f 38/52/16 106/131/16 104/129/16
f 41/56/16 108/133/16 106/131/16
f 146/174/3 39/53/3 105/130/3
f 124/152/5 104/129/5 145/173/5
f 42/57/15 103/128/15 107/132/15
f 46/62/7 71/90/7 69/88/7
f 45/61/8 70/89/8 68/87/8
f 47/63/8 72/91/8 70/89/8
f 134/162/3 46/62/3 69/88/3
f 126/154/5 68/87/5 133/161/5
f 48/64/7 67/86/7 71/90/7
f 50/66/17 83/104/17 80/101/17
f 51/67/18 82/103/18 81/102/18
f 53/70/18 79/100/18 82/103/18
f 127/155/5 80/101/5 138/166/5
f 137/165/3 51/67/3 81/102/3
f 54/71/17 84/105/17 83/104/17
f 92/115/9 60/78/9 95/118/9
f 58/76/10 94/117/10 93/116/10
f 59/77/10 91/114/10 94/117/10
f 129/157/5 92/115/5 142/170/5
f 141/169/3 58/76/3 93/116/3
f 95/118/9 55/72/9 96/119/9
f 64/83/7 48/64/7 46/62/7
f 63/82/8 47/63/8 45/61/8
f 65/84/8 43/58/8 47/63/8
f 125/153/3 64/83/3 46/62/3
f 132/160/5 45/61/5 126/154/5
f 66/85/7 44/60/7 48/64/7
f 71/90/7 18/27/7 34/48/7
f 133/161/5 19/28/5 118/146/5
f 117/145/3 69/88/3 20/29/3
f 70/89/8 17/25/8 33/47/8
f 68/87/8 33/47/8 19/28/8
f 69/88/7 34/48/7 20/29/7
f 75/96/17 54/71/17 50/66/17
f 76/97/18 53/70/18 51/67/18
f 77/98/18 49/65/18 53/70/18
f 135/163/5 50/66/5 127/155/5
f 128/156/3 76/97/3 51/67/3
f 78/99/17 52/68/17 54/71/17
f 31/45/19 84/105/19 16/23/19
f 115/143/3 81/102/3 15/22/3
f 138/166/5 14/21/5 116/144/5
f 82/103/20 13/20/20 32/46/20
f 81/102/20 32/46/20 15/22/20
f 80/101/19 31/45/19 14/21/19
f 57/75/9 90/113/9 60/78/9
f 88/111/10 59/77/10 58/76/10
f 89/112/10 56/74/10 59/77/10
f 139/167/5 57/75/5 129/157/5
f 130/158/3 88/111/3 58/76/3
f 60/78/9 85/107/9 55/72/9
f 95/118/21 24/33/21 36/50/21
f 120/148/3 93/116/3 23/32/3
f 142/170/5 22/31/5 119/147/5
f 94/117/22 21/30/22 35/49/22
f 93/116/22 35/49/22 23/32/22
f 22/31/21 95/118/21 36/50/21
f 100/125/23 42/57/23 39/53/23
f 99/124/24 41/56/24 38/52/24
f 101/126/24 40/54/24 41/56/24
f 123/151/3 100/125/3 39/53/3
f 144/172/5 38/52/5 124/152/5
f 102/127/23 37/51/23 42/57/23
f 107/132/15 2/2/15 25/35/15
f 145/173/5 4/4/5 112/140/5
f 109/135/3 105/130/3 6/7/3
f 106/131/16 8/13/16 27/40/16
f 104/129/16 27/40/16 4/4/16
f 105/130/15 25/35/15 6/7/15
f 8/14/3 146/174/3 109/135/3
f 103/128/5 112/140/5 2/2/5
f 98/123/5 124/152/5 37/51/5
f 40/55/3 143/171/3 123/151/3
f 91/114/5 119/147/5 21/30/5
f 24/34/3 141/169/3 120/148/3
f 55/73/3 140/168/3 130/158/3
f 86/109/5 129/157/5 56/74/5
f 79/100/5 116/144/5 13/20/5
f 16/24/3 137/165/3 115/143/3
f 52/69/3 136/164/3 128/156/3
f 74/95/5 127/155/5 49/65/5
f 17/26/3 134/162/3 117/145/3
f 67/86/5 118/146/5 18/27/5
f 62/81/5 126/154/5 44/60/5
f 43/59/3 131/159/3 125/153/3
f 96/120/3 130/158/3 141/169/3
f 56/74/5 142/170/5 91/114/5
f 84/106/3 128/156/3 137/165/3
f 49/65/5 138/166/5 79/100/5
f 44/60/5 133/161/5 67/86/5
f 72/92/3 125/153/3 134/162/3
f 37/51/5 145/173/5 103/128/5
f 108/134/3 123/151/3 146/174/3
f 28/42/1 110/137/1 1/1/1
f 25/36/4 109/136/4 6/8/4
f 97/122/3 120/148/3 143/171/3
f 21/30/5 144/172/5 98/123/5
f 18/27/5 135/163/5 74/95/5
f 73/94/3 117/145/3 136/164/3
f 13/20/5 139/167/5 86/109/5
f 85/108/3 115/143/3 140/168/3
f 61/80/3 114/142/3 131/159/3
f 9/15/5 132/160/5 62/81/5
f 9/15/5 110/137/5 113/141/5
f 2/2/4 121/149/4 25/36/4
f 7/11/3 114/142/3 10/17/3
f 5/6/1 122/150/1 28/42/1
f 111/139/1 7/9/1 26/38/1
f 26/37/2 7/10/2 10/16/2
f 111/138/3 5/5/3 12/19/3
f 112/140/4 4/4/4 27/39/4
f 113/141/5 110/137/5 3/3/5
f 28/41/6 1/1/6 9/15/6
f 29/43/7 9/15/7 62/81/7
f 113/141/5 11/18/5 63/82/5
f 131/159/3 114/142/3 12/19/3
f 30/44/8 10/16/8 61/79/8
f 90/113/9 31/45/9 16/23/9
f 140/168/3 115/143/3 15/22/3
f 116/144/5 14/21/5 87/110/5
f 32/46/10 13/20/10 86/109/10
f 33/47/11 17/25/11 73/93/11
f 136/164/3 117/145/3 20/29/3
f 118/146/5 19/28/5 75/96/5
f 34/48/12 18/27/12 74/95/12
f 35/49/13 21/30/13 98/123/13
f 119/147/5 22/31/5 99/124/5
f 143/171/3 120/148/3 23/32/3
f 36/50/14 24/33/14 97/121/14
f 99/124/14 22/31/14 36/50/14
f 23/32/13 35/49/13 102/127/13
f 20/29/12 34/48/12 77/98/12
f 19/28/11 33/47/11 78/99/11
f 15/22/10 32/46/10 89/112/10
f 14/21/9 31/45/9 90/113/9
f 11/18/8 30/44/8 65/84/8
f 12/19/7 29/43/7 66/85/7
f 5/5/6 28/41/6 29/43/6
f 121/149/4 27/39/4 8/12/4
f 3/3/2 26/37/2 30/44/2
f 122/150/1 26/38/1 3/3/1
f 39/53/15 42/57/15 107/132/15
f 38/52/16 41/56/16 106/131/16
f 41/56/16 40/54/16 108/133/16
f 146/174/3 123/151/3 39/53/3
f 124/152/5 38/52/5 104/129/5
f 42/57/15 37/51/15 103/128/15
f 46/62/7 48/64/7 71/90/7
f 45/61/8 47/63/8 70/89/8
f 47/63/8 43/58/8 72/91/8
f 134/162/3 125/153/3 46/62/3
f 126/154/5 45/61/5 68/87/5
f 48/64/7 44/60/7 67/86/7
f 50/66/17 54/71/17 83/104/17
f 51/67/18 53/70/18 82/103/18
f 53/70/18 49/65/18 79/100/18
f 127/155/5 50/66/5 80/101/5
f 137/165/3 128/156/3 51/67/3
f 54/71/17 52/68/17 84/105/17
f 92/115/9 57/75/9 60/78/9
f 58/76/10 59/77/10 94/117/10
f 59/77/10 56/74/10 91/114/10
f 129/157/5 57/75/5 92/115/5
f 141/169/3 130/158/3 58/76/3
f 95/118/9 60/78/9 55/72/9
f 64/83/7 66/85/7 48/64/7
f 63/82/8 65/84/8 47/63/8
f 65/84/8 61/79/8 43/58/8
f 125/153/3 131/159/3 64/83/3
f 132/160/5 63/82/5 45/61/5
f 66/85/7 62/81/7 44/60/7
f 71/90/7 67/86/7 18/27/7
f 133/161/5 68/87/5 19/28/5
f 117/145/3 134/162/3 69/88/3
f 70/89/8 72/91/8 17/25/8
f 68/87/8 70/89/8 33/47/8
f 69/88/7 71/90/7 34/48/7
f 75/96/17 78/99/17 54/71/17
f 76/97/18 77/98/18 53/70/18
f 77/98/18 74/95/18 49/65/18
f 135/163/5 75/96/5 50/66/5
f 128/156/3 136/164/3 76/97/3
f 78/99/17 73/93/17 52/68/17
f 31/45/19 83/104/19 84/105/19
f 115/143/3 137/165/3 81/102/3
f 138/166/5 80/101/5 14/21/5
f 82/103/20 79/100/20 13/20/20
f 81/102/20 82/103/20 32/46/20
f 80/101/19 83/104/19 31/45/19
f 57/75/9 87/110/9 90/113/9
f 88/111/10 89/112/10 59/77/10
f 89/112/10 86/109/10 56/74/10
f 139/167/5 87/110/5 57/75/5
f 130/158/3 140/168/3 88/111/3
f 60/78/9 90/113/9 85/107/9
f 95/118/21 96/119/21 24/33/21
f 120/148/3 141/169/3 93/116/3
f 142/170/5 92/115/5 22/31/5
f 94/117/22 91/114/22 21/30/22
f 93/116/22 94/117/22 35/49/22
f 22/31/21 92/115/21 95/118/21
f 100/125/23 102/127/23 42/57/23
f 99/124/24 101/126/24 41/56/24
f 101/126/24 97/121/24 40/54/24
f 123/151/3 143/171/3 100/125/3
f 144/172/5 99/124/5 38/52/5
f 102/127/23 98/123/23 37/51/23
f 107/132/15 103/128/15 2/2/15
f 145/173/5 104/129/5 4/4/5
f 109/135/3 146/174/3 105/130/3
f 106/131/16 108/133/16 8/13/16
f 104/129/16 106/131/16 27/40/16
f 105/130/15 107/132/15 25/35/15
f 8/14/3 108/134/3 146/174/3
f 103/128/5 145/173/5 112/140/5
f 98/123/5 144/172/5 124/152/5
f 40/55/3 97/122/3 143/171/3
f 91/114/5 142/170/5 119/147/5
f 24/34/3 96/120/3 141/169/3
f 55/73/3 85/108/3 140/168/3
f 86/109/5 139/167/5 129/157/5
f 79/100/5 138/166/5 116/144/5
f 16/24/3 84/106/3 137/165/3
f 52/69/3 73/94/3 136/164/3
f 74/95/5 135/163/5 127/155/5
f 17/26/3 72/92/3 134/162/3
f 67/86/5 133/161/5 118/146/5
f 62/81/5 132/160/5 126/154/5
f 43/59/3 61/80/3 131/159/3
f 96/120/3 55/73/3 130/158/3
f 56/74/5 129/157/5 142/170/5
f 84/106/3 52/69/3 128/156/3
f 49/65/5 127/155/5 138/166/5
f 44/60/5 126/154/5 133/161/5
f 72/92/3 43/59/3 125/153/3
f 37/51/5 124/152/5 145/173/5
f 108/134/3 40/55/3 123/151/3
f 28/42/1 122/150/1 110/137/1
f 25/36/4 121/149/4 109/136/4
f 97/122/3 24/34/3 120/148/3
f 21/30/5 119/147/5 144/172/5
f 18/27/5 118/146/5 135/163/5
f 73/94/3 17/26/3 117/145/3
f 13/20/5 116/144/5 139/167/5
f 85/108/3 16/24/3 115/143/3
f 61/80/3 10/17/3 114/142/3
f 9/15/5 113/141/5 132/160/5
f 9/15/5 1/1/5 110/137/5
f 2/2/4 112/140/4 121/149/4
f 7/11/3 111/138/3 114/142/3
f 5/6/1 111/139/1 122/150/1
